<mxfile host="65bd71144e">
    <diagram id="IuPvhzW8n7ErRynUvdMj" name="Page-1">
        <mxGraphModel dx="1002" dy="611" grid="1" gridSize="10" guides="1" tooltips="1" connect="1" arrows="1" fold="1" page="1" pageScale="1" pageWidth="850" pageHeight="1100" math="0" shadow="0">
            <root>
                <mxCell id="0"/>
                <mxCell id="1" parent="0"/>
                <mxCell id="36" style="edgeStyle=none;html=1;exitX=0.88;exitY=1;exitDx=0;exitDy=0;exitPerimeter=0;entryX=1;entryY=0.07;entryDx=0;entryDy=0;entryPerimeter=0;strokeWidth=1;fontColor=#FFFFFF;startArrow=none;startFill=0;endArrow=classic;endFill=1;fillColor=#ffffff;" edge="1" parent="1" source="2" target="7">
                    <mxGeometry relative="1" as="geometry"/>
                </mxCell>
                <mxCell id="37" value="Response" style="edgeLabel;html=1;align=center;verticalAlign=middle;resizable=0;points=[];fontColor=#FFFFFF;fontSize=10;" vertex="1" connectable="0" parent="36">
                    <mxGeometry x="-0.1859" y="-2" relative="1" as="geometry">
                        <mxPoint x="6" y="22" as="offset"/>
                    </mxGeometry>
                </mxCell>
                <mxCell id="2" value="&lt;font color=&quot;#000000&quot;&gt;Internet&lt;/font&gt;" style="html=1;outlineConnect=0;fillColor=#CCCCCC;strokeColor=#6881B3;gradientColor=none;gradientDirection=north;strokeWidth=2;shape=mxgraph.networks.cloud;fontColor=#ffffff;" vertex="1" parent="1">
                    <mxGeometry x="238" y="400" width="90" height="50" as="geometry"/>
                </mxCell>
                <mxCell id="4" value="" style="fontColor=#0066CC;verticalAlign=top;verticalLabelPosition=bottom;labelPosition=center;align=center;html=1;outlineConnect=0;fillColor=#CCCCCC;strokeColor=#6881B3;gradientColor=none;gradientDirection=north;strokeWidth=2;shape=mxgraph.networks.storage;" vertex="1" parent="1">
                    <mxGeometry x="414" y="90" width="48" height="50" as="geometry"/>
                </mxCell>
                <mxCell id="6" value="" style="fontColor=#0066CC;verticalAlign=top;verticalLabelPosition=bottom;labelPosition=center;align=center;html=1;outlineConnect=0;fillColor=#CCCCCC;strokeColor=#6881B3;gradientColor=none;gradientDirection=north;strokeWidth=2;shape=mxgraph.networks.mobile;" vertex="1" parent="1">
                    <mxGeometry x="550" y="520" width="50" height="100" as="geometry"/>
                </mxCell>
                <mxCell id="7" value="" style="fontColor=#0066CC;verticalAlign=top;verticalLabelPosition=bottom;labelPosition=center;align=center;html=1;outlineConnect=0;fillColor=#CCCCCC;strokeColor=#6881B3;gradientColor=none;gradientDirection=north;strokeWidth=2;shape=mxgraph.networks.pc;" vertex="1" parent="1">
                    <mxGeometry x="233" y="535" width="100" height="70" as="geometry"/>
                </mxCell>
                <mxCell id="8" value="&lt;font color=&quot;#ffffff&quot;&gt;Spring&lt;br&gt;Server&lt;br&gt;&lt;/font&gt;" style="fontColor=#0066CC;verticalAlign=top;verticalLabelPosition=bottom;labelPosition=center;align=center;html=1;outlineConnect=0;fillColor=#CCCCCC;strokeColor=#6881B3;gradientColor=none;gradientDirection=north;strokeWidth=2;shape=mxgraph.networks.server;" vertex="1" parent="1">
                    <mxGeometry x="393" y="220" width="90" height="100" as="geometry"/>
                </mxCell>
                <mxCell id="9" value="" style="endArrow=classic;startArrow=none;html=1;entryX=0.5;entryY=1;entryDx=0;entryDy=0;entryPerimeter=0;" edge="1" parent="1" source="11" target="4">
                    <mxGeometry width="50" height="50" relative="1" as="geometry">
                        <mxPoint x="360" y="240" as="sourcePoint"/>
                        <mxPoint x="410" y="190" as="targetPoint"/>
                    </mxGeometry>
                </mxCell>
                <mxCell id="10" value="" style="endArrow=none;startArrow=classic;html=1;entryX=0.5;entryY=1;entryDx=0;entryDy=0;entryPerimeter=0;" edge="1" parent="1" source="8" target="11">
                    <mxGeometry width="50" height="50" relative="1" as="geometry">
                        <mxPoint x="438" y="250" as="sourcePoint"/>
                        <mxPoint x="438" y="170" as="targetPoint"/>
                    </mxGeometry>
                </mxCell>
                <mxCell id="11" value="Storage and Retrieval of FIles" style="text;html=1;strokeColor=none;fillColor=none;align=center;verticalAlign=middle;whiteSpace=wrap;rounded=0;" vertex="1" parent="1">
                    <mxGeometry x="322" y="170" width="232" height="30" as="geometry"/>
                </mxCell>
                <mxCell id="34" style="edgeStyle=none;html=1;entryX=0.95;entryY=0.03;entryDx=0;entryDy=0;entryPerimeter=0;strokeWidth=1;fontColor=#FFFFFF;startArrow=none;startFill=0;endArrow=classic;endFill=1;fillColor=#ffffff;exitX=0.88;exitY=1;exitDx=0;exitDy=0;exitPerimeter=0;" edge="1" parent="1" source="19" target="6">
                    <mxGeometry relative="1" as="geometry"/>
                </mxCell>
                <mxCell id="35" value="Response" style="edgeLabel;html=1;align=center;verticalAlign=middle;resizable=0;points=[];fontColor=#FFFFFF;" vertex="1" connectable="0" parent="34">
                    <mxGeometry x="-0.1583" relative="1" as="geometry">
                        <mxPoint as="offset"/>
                    </mxGeometry>
                </mxCell>
                <mxCell id="19" value="&lt;font color=&quot;#000000&quot;&gt;Internet&lt;/font&gt;" style="html=1;outlineConnect=0;fillColor=#CCCCCC;strokeColor=#6881B3;gradientColor=none;gradientDirection=north;strokeWidth=2;shape=mxgraph.networks.cloud;fontColor=#ffffff;" vertex="1" parent="1">
                    <mxGeometry x="530" y="400" width="90" height="50" as="geometry"/>
                </mxCell>
                <mxCell id="20" value="&lt;font color=&quot;#ffffff&quot;&gt;Get and Upload Files&lt;/font&gt;" style="endArrow=classic;startArrow=classic;html=1;strokeWidth=1;fontColor=#000000;fillColor=#ffffff;exitX=0.7;exitY=0.07;exitDx=0;exitDy=0;exitPerimeter=0;entryX=0;entryY=1;entryDx=0;entryDy=0;entryPerimeter=0;" edge="1" parent="1" source="2" target="8">
                    <mxGeometry width="50" height="50" relative="1" as="geometry">
                        <mxPoint x="320" y="400" as="sourcePoint"/>
                        <mxPoint x="390" y="340" as="targetPoint"/>
                    </mxGeometry>
                </mxCell>
                <mxCell id="21" value="&lt;font color=&quot;#ffffff&quot;&gt;Upload &amp;amp; View Files and Data in Web&lt;/font&gt;" style="text;html=1;strokeColor=none;fillColor=none;align=center;verticalAlign=middle;whiteSpace=wrap;rounded=0;fontColor=#000000;" vertex="1" parent="1">
                    <mxGeometry x="219.5" y="625" width="127" height="30" as="geometry"/>
                </mxCell>
                <mxCell id="23" value="POST ID, Files" style="endArrow=classic;startArrow=none;html=1;strokeWidth=1;fontColor=#FFFFFF;fillColor=#ffffff;entryX=0.14;entryY=1;entryDx=0;entryDy=0;entryPerimeter=0;exitX=0;exitY=0;exitDx=0;exitDy=0;exitPerimeter=0;startFill=0;" edge="1" parent="1" source="7" target="2">
                    <mxGeometry width="50" height="50" relative="1" as="geometry">
                        <mxPoint x="300" y="530" as="sourcePoint"/>
                        <mxPoint x="350" y="480" as="targetPoint"/>
                    </mxGeometry>
                </mxCell>
                <mxCell id="24" value="GET ID" style="endArrow=classic;startArrow=none;html=1;strokeWidth=1;fontColor=#FFFFFF;fillColor=#ffffff;startFill=0;exitX=0.05;exitY=0.03;exitDx=0;exitDy=0;exitPerimeter=0;entryX=0.14;entryY=1;entryDx=0;entryDy=0;entryPerimeter=0;" edge="1" parent="1" source="6" target="19">
                    <mxGeometry width="50" height="50" relative="1" as="geometry">
                        <mxPoint x="680" y="510" as="sourcePoint"/>
                        <mxPoint x="730" y="460" as="targetPoint"/>
                    </mxGeometry>
                </mxCell>
                <mxCell id="25" value="Receive Files based on ID" style="endArrow=classic;startArrow=classic;html=1;strokeWidth=1;fontColor=#FFFFFF;fillColor=#ffffff;entryX=1;entryY=1;entryDx=0;entryDy=0;entryPerimeter=0;exitX=0.5;exitY=0.08;exitDx=0;exitDy=0;exitPerimeter=0;" edge="1" parent="1" source="19" target="8">
                    <mxGeometry width="50" height="50" relative="1" as="geometry">
                        <mxPoint x="570" y="360" as="sourcePoint"/>
                        <mxPoint x="620" y="310" as="targetPoint"/>
                    </mxGeometry>
                </mxCell>
                <mxCell id="30" value="Interact with Models in AR" style="text;html=1;align=center;verticalAlign=middle;resizable=0;points=[];autosize=1;strokeColor=none;fillColor=none;fontColor=#FFFFFF;" vertex="1" parent="1">
                    <mxGeometry x="488" y="625" width="160" height="30" as="geometry"/>
                </mxCell>
            </root>
        </mxGraphModel>
    </diagram>
</mxfile>